<svg width="20" height="18" viewBox="0 0 20 18" fill="none" xmlns="http://www.w3.org/2000/svg">
<path d="M2.49984 1.5L17.4998 16.5M8.81983 7.82248C8.5071 8.13499 8.33132 8.55894 8.33116 9.00106C8.33101 9.44317 8.50649 9.86724 8.819 10.18C9.13151 10.4927 9.55546 10.6685 9.99758 10.6687C10.4397 10.6688 10.8638 10.4933 11.1765 10.1808M7.80234 3.47083C8.51685 3.26643 9.25667 3.16403 9.99984 3.16667C13.3332 3.16667 16.1107 5.11083 18.3332 9C17.6848 10.1342 16.9898 11.1033 16.2473 11.9067M14.464 13.4575C13.1048 14.3742 11.6182 14.8333 9.99984 14.8333C6.6665 14.8333 3.889 12.8892 1.6665 9C2.80734 7.00416 4.094 5.52083 5.5265 4.54917" stroke="#A0AEC0" stroke-width="1.5" stroke-linecap="round" stroke-linejoin="round"/>
</svg>
